<?xml version="1.0" encoding="UTF-8"?>
<svg id="_レイヤー_1" data-name="レイヤー_1" xmlns="http://www.w3.org/2000/svg" version="1.1" viewBox="0 0 65.6 64.8">
  <!-- Generator: Adobe Illustrator 29.7.1, SVG Export Plug-In . SVG Version: 2.1.1 Build 8)  -->
  <defs>
    <style>
      .st0 {
        fill: #fff;
      }
    </style>
  </defs>
  <path class="st0" d="M0,32.4c0,9,3.7,17.2,9.7,23.1V9.4C3.7,15.3,0,23.4,0,32.4Z"/>
  <path class="st0" d="M47.6,3.5c-4.4-2.2-9.5-3.5-14.8-3.5s-7.4.6-10.8,1.8v27.5L47.6,3.5Z"/>
  <path class="st0" d="M59.2,51.7c4-5.4,6.4-12,6.4-19.2s-3.6-16.8-9.4-22.7l-15.9,15.7,18.9,26.2h0Z"/>
  <path class="st0" d="M22,43.8v19.3c3.4,1.2,7,1.8,10.8,1.8,6.3,0,12.3-1.8,17.3-4.9l-18.1-26-10,9.8h0Z"/>
</svg>