<svg width="328" height="31" viewBox="0 0 328 31" fill="none" xmlns="http://www.w3.org/2000/svg">
<g clip-path="url(#clip0_1_81)">
<path d="M0 15.4984C0 19.8092 1.78061 23.7093 4.65278 26.5173V4.47951C1.78061 7.29075 0 11.1876 0 15.4984Z" fill="#0362A1"/>
<path d="M22.7359 1.66191C20.614 0.601725 18.2152 0 15.6779 0C13.8683 0 12.1328 0.305638 10.5164 0.862791V14.0116L22.7359 1.66191Z" fill="#0362A1"/>
<path d="M28.2965 24.693C30.2156 22.1206 31.3522 18.9432 31.3522 15.5016C31.3522 11.2768 29.6425 7.44993 26.8701 4.65462L19.2808 12.1587L28.2933 24.693H28.2965Z" fill="#0362A1"/>
<path d="M10.5164 20.9171V30.134C12.1328 30.6912 13.8683 30.9968 15.6779 30.9968C18.7078 30.9968 21.5349 30.1436 23.9338 28.6727L15.3012 16.2338L10.5196 20.9171H10.5164Z" fill="#0362A1"/>
<path d="M28.2966 24.693L19.284 12.1587L26.8734 4.65462C25.6756 3.44798 24.2813 2.43237 22.739 1.66191L10.5194 14.0116V0.862791C8.29446 1.63007 6.29812 2.87491 4.65918 4.47951V26.5173C6.29812 28.1219 8.29446 29.3667 10.5194 30.134V20.9171L15.301 16.2339L23.9336 28.6727C25.6337 27.6284 27.1149 26.2753 28.2998 24.6898L28.2966 24.693Z" fill="white"/>
<path d="M52.8741 11.576C52.6391 14.6611 52.0273 17.2877 51.0066 19.6532C49.49 23.1139 46.9527 25.9697 43.5074 27.9882C43.2434 28.1315 42.9825 28.1888 42.7475 28.1888C42.3386 28.1888 41.9876 27.9882 41.7268 27.5839C41.5819 27.3833 41.5239 27.1509 41.5239 26.9503C41.5239 26.5173 41.759 26.113 42.1647 25.8837C45.288 24.0658 47.5323 21.5284 48.817 18.4975C49.6639 16.5076 50.1597 14.2568 50.3916 11.6047H43.4205C42.6895 11.6047 42.3418 11.229 42.3418 10.5095C42.3418 9.78997 42.6928 9.35699 43.4494 9.35699L50.5687 9.32833C50.6556 7.80014 50.6846 6.55849 50.6846 5.14491C50.6846 4.39355 51.1515 4.02105 51.9114 4.02105C52.6713 4.02105 53.1961 4.42539 53.1961 5.17356C53.1671 6.61579 53.1092 7.8861 53.0512 9.32833L61.0463 9.29968C63.1457 9.29968 64.2276 10.4235 64.1986 12.3274C64.1116 16.5395 63.7896 20.0862 63.3807 22.7127C62.7689 26.5491 61.4552 27.7908 58.6249 27.7908C57.1953 27.7908 55.6787 27.6189 54.6 27.2719C54.1041 27.0999 53.8111 26.6669 53.8111 26.1193C53.8111 26.0047 53.8111 25.8583 53.8401 25.7437C53.956 25.1674 54.365 24.8777 54.8608 24.8777C54.9767 24.8777 55.1248 24.9063 55.2697 24.935C56.1456 25.1961 57.3402 25.368 58.3319 25.368C59.8485 25.368 60.4313 24.9063 60.9561 22.0792C61.394 19.685 61.6259 16.3676 61.716 12.8495V12.7349C61.716 11.783 61.365 11.5824 60.2574 11.5824H52.8773L52.8741 11.576Z" fill="#231815"/>
<path d="M74.4605 11.3182C74.8694 11.3182 75.2204 11.5187 75.4232 11.9231C76.328 13.6264 77.2618 16.0205 77.8446 17.8958C77.8736 18.0677 77.9025 18.1855 77.9025 18.3287C77.9025 18.819 77.5806 19.1374 77.0847 19.2807C76.9108 19.338 76.7627 19.3666 76.6178 19.3666C76.1509 19.3666 75.742 19.1374 75.5971 18.6439C75.0433 16.7974 74.1095 14.4319 73.2626 12.789C73.1757 12.6458 73.1467 12.528 73.1467 12.3847C73.1467 11.9517 73.4687 11.576 73.9066 11.4328C74.0805 11.3468 74.2866 11.3182 74.4605 11.3182ZM91.6451 11.8658V12.0663C91.2652 15.9027 90.0127 19.7678 87.997 22.423C85.7205 25.3934 82.1045 27.7303 78.1956 28.539C78.0796 28.5676 77.9605 28.5676 77.8736 28.5676C77.3487 28.5676 76.9688 28.2779 76.8239 27.7876C76.7949 27.6443 76.7659 27.4979 76.7659 27.3546C76.7659 26.893 77.0589 26.5173 77.5838 26.4027C80.852 25.6227 84.2071 23.6901 86.1616 21.0094C87.9133 18.6153 88.934 15.1546 89.3139 11.662C89.3429 11.0284 89.8967 10.7674 90.3926 10.7674H90.5375C91.2652 10.882 91.6451 11.229 91.6451 11.8626V11.8658ZM80.588 10.1625C80.9969 10.1625 81.3479 10.363 81.5797 10.796C82.4845 12.4993 83.3313 14.7184 83.8562 16.6796C83.8851 16.7655 83.8851 16.8801 83.8851 16.9693C83.8851 17.4023 83.6211 17.778 83.0963 17.9499C82.9224 17.9785 82.7743 18.0072 82.6004 18.0072C82.1335 18.0072 81.6956 17.778 81.6087 17.345C81.1128 15.4984 80.208 13.1902 79.4191 11.6334C79.3322 11.4901 79.3032 11.3436 79.3032 11.2004C79.3032 10.796 79.6252 10.449 80.0631 10.2771C80.237 10.1911 80.4141 10.1625 80.588 10.1625Z" fill="#231815"/>
<path d="M101.563 6.6731C102.001 6.6731 102.351 6.87368 102.583 7.27801C103.807 9.4716 104.947 12.528 105.703 14.8935C105.761 15.0941 105.79 15.2692 105.79 15.4124C105.79 15.9314 105.468 16.2784 104.915 16.479C104.741 16.5363 104.564 16.565 104.39 16.565C103.865 16.565 103.427 16.2466 103.282 15.7276C102.641 13.5054 101.357 10.3917 100.336 8.34456C100.249 8.14399 100.191 7.96888 100.191 7.79696C100.191 7.33532 100.455 6.95964 100.951 6.78772C101.154 6.70176 101.36 6.6731 101.563 6.6731ZM123.12 7.22071V7.39263C122.624 12.2383 120.959 17.0266 118.48 20.344C115.592 24.1518 111.042 27.0363 106.286 28.0742C106.141 28.1028 105.993 28.1315 105.848 28.1315C105.294 28.1315 104.915 27.8704 104.712 27.2655C104.683 27.1222 104.654 26.9758 104.654 26.8611C104.654 26.2849 105.063 25.8806 105.645 25.7086C109.963 24.467 113.959 22.162 116.471 18.8127C118.718 15.8423 120.148 11.5156 120.586 7.01376C120.644 6.2624 121.169 5.94721 121.78 5.94721C121.896 5.94721 121.983 5.94721 122.102 5.97587C122.685 6.09048 123.123 6.52347 123.123 7.21752L123.12 7.22071ZM109.236 5.23087C109.703 5.23087 110.169 5.43145 110.43 5.95358C111.422 8.08986 112.559 10.8852 113.261 13.3398C113.29 13.4545 113.319 13.5691 113.319 13.6582C113.319 14.2345 112.91 14.6961 112.356 14.8394C112.211 14.868 112.034 14.8967 111.889 14.8967C111.364 14.8967 110.926 14.6356 110.781 14.088C110.169 11.7512 109.001 8.80939 108.038 6.90552C107.951 6.70494 107.893 6.50118 107.893 6.30061C107.893 5.83897 108.215 5.49194 108.711 5.32002C108.885 5.26271 109.062 5.23406 109.236 5.23406V5.23087Z" fill="#231815"/>
<path d="M147.334 7.07744C147.916 7.07744 148.734 7.13474 149.462 7.59638C148.995 7.04878 148.731 6.32608 148.731 5.54924C148.731 3.75999 150.19 2.31776 152.028 2.31776C153.867 2.31776 155.325 3.75999 155.325 5.54924C155.325 7.3385 153.867 8.80939 152.028 8.80939C151.358 8.80939 150.715 8.60881 150.19 8.26178C150.628 8.80939 150.743 9.38564 150.743 10.1943C150.743 10.4522 150.715 10.7419 150.686 11.003C149.43 19.771 143.305 26.3486 133.62 28.7141C133.417 28.7714 133.24 28.8 133.066 28.8C132.541 28.8 132.132 28.539 131.987 27.9914C131.93 27.8481 131.93 27.673 131.93 27.5297C131.93 26.9535 132.252 26.4918 132.863 26.3167C141.264 24.1231 146.983 18.6726 147.945 10.9138C147.974 10.7706 147.974 10.6241 147.974 10.5095C147.974 9.75814 147.594 9.52891 146.69 9.52891H129.682C129.012 9.52891 128.632 9.00996 128.632 8.28725C128.632 7.56455 129.041 7.07425 129.682 7.07425H147.334V7.07744ZM150.077 5.54924C150.077 6.58714 150.982 7.48177 152.031 7.48177C153.081 7.48177 153.986 6.58714 153.986 5.54924C153.986 4.51135 153.081 3.64537 152.031 3.64537C150.982 3.64537 150.077 4.51135 150.077 5.54924Z" fill="#231815"/>
<path d="M180.737 23.8079C180.737 25.9124 179.658 26.9821 177.617 26.9821H162.329C160.316 26.9821 159.209 25.9156 159.209 23.8079V9.41429C159.209 7.30985 160.316 6.21146 162.329 6.21146H177.617C179.658 6.21146 180.737 7.30666 180.737 9.41429V23.8079ZM176.741 24.588C177.849 24.588 178.142 24.3269 178.142 23.3177V9.87594C178.142 8.86669 177.849 8.57697 176.741 8.57697H163.205C162.097 8.57697 161.804 8.83804 161.804 9.87594V23.3177C161.804 24.3555 162.097 24.588 163.205 24.588H176.741Z" fill="#231815"/>
<path d="M195.146 9.70083C193.424 12.4134 190.973 15.0081 188.349 16.7687C188.117 16.9406 187.853 17.0298 187.589 17.0298C187.238 17.0298 186.919 16.8579 186.655 16.5108C186.511 16.3103 186.424 16.0492 186.424 15.82C186.424 15.4156 186.597 15.0113 186.977 14.7534C188.668 13.5722 190.275 12.0982 191.559 10.5127C192.931 8.80939 193.981 7.02331 194.943 4.60049C195.179 4.02424 195.497 3.84913 195.993 3.84913C196.109 3.84913 196.286 3.84913 196.431 3.87778C196.927 3.96375 197.365 4.25347 197.365 4.80107C197.365 4.88703 197.365 5.00164 197.336 5.09079C197.22 5.66704 196.811 6.59032 196.373 7.48495L205.737 7.34168C207.546 7.31303 208.654 8.35093 208.654 10.1402C208.654 10.4872 208.625 10.8597 208.538 11.264C207.81 15.0145 206.175 18.5898 203.608 21.6207C200.604 25.1674 196.373 27.9946 190.861 29.4654C190.658 29.5227 190.481 29.5227 190.307 29.5227C189.811 29.5227 189.431 29.3222 189.257 28.8319C189.199 28.66 189.17 28.4848 189.17 28.3416C189.17 27.8226 189.492 27.3896 190.075 27.2177C194.509 25.9188 197.922 23.8716 200.723 21.1018C198.563 19.1119 196.174 17.294 194.042 15.9951C193.749 15.7945 193.575 15.5048 193.575 15.1864C193.575 14.9253 193.691 14.6388 193.897 14.4064C194.161 14.088 194.48 13.9447 194.831 13.9447C195.063 13.9447 195.327 14.0307 195.562 14.174C197.313 15.2119 200.053 17.0298 202.388 19.2807C204.255 16.8865 205.392 14.1453 206.036 10.9457C206.094 10.7133 206.123 10.5127 206.123 10.3408C206.123 9.82181 205.859 9.53209 205.044 9.53209H204.928L195.156 9.70401L195.146 9.70083ZM206.526 3.18373C206.848 3.18373 207.05 3.26969 207.285 3.5021C208.19 4.39673 209.24 5.78166 209.794 6.73359C209.881 6.90551 209.997 7.10927 209.997 7.48495C209.997 7.91794 209.588 8.29362 209.034 8.29362C208.683 8.29362 208.451 8.15035 208.274 7.80333C207.662 6.73678 206.786 5.55243 205.968 4.6578C205.795 4.45722 205.675 4.22481 205.675 3.96693C205.675 3.59125 206.055 3.18692 206.522 3.18692L206.526 3.18373ZM210.348 2.05669C210.67 2.05669 210.872 2.14265 211.136 2.40372C211.864 3.18373 213.004 4.62596 213.529 5.54924C213.616 5.72117 213.703 5.95358 213.703 6.27195C213.703 6.61898 213.352 7.08062 212.798 7.08062C212.447 7.08062 212.244 6.93735 212.038 6.61898C211.397 5.52377 210.637 4.45404 209.852 3.5626C209.617 3.30153 209.501 3.15826 209.501 2.81123C209.501 2.43555 209.939 2.05987 210.348 2.05987V2.05669Z" fill="#231815"/>
<path d="M225.488 10.0765C223.797 12.6744 221.463 15.0654 218.893 16.7401C218.629 16.8833 218.397 16.9693 218.133 16.9693C217.753 16.9693 217.406 16.7687 217.142 16.4503C216.997 16.2498 216.906 15.9887 216.906 15.699C216.906 15.3233 217.08 14.8903 217.518 14.6324C220.407 12.7859 223.324 9.61169 225.278 4.7947C225.481 4.27575 225.832 3.95738 226.415 3.95738C226.56 3.95738 226.737 3.98603 226.94 4.04334C227.552 4.18661 227.845 4.61959 227.845 5.08124C227.845 5.19585 227.816 5.3423 227.787 5.45692C227.613 6.06183 227.204 6.87049 226.65 7.82243L235.782 7.65051C237.649 7.62185 238.815 8.65975 238.815 10.535C238.815 10.882 238.786 11.2258 238.699 11.6302C236.947 19.7933 231.142 26.3995 221.195 28.765C221.08 28.7937 220.964 28.7937 220.844 28.7937C220.262 28.7937 219.824 28.504 219.65 27.9564C219.621 27.8131 219.592 27.6666 219.592 27.5234C219.592 27.0044 219.914 26.5714 220.555 26.4282C229.075 24.2059 234.297 19.0737 236.046 11.2545C236.075 11.0539 236.104 10.9075 236.104 10.7355C236.104 10.1879 235.811 9.92688 234.996 9.92688H234.88L225.484 10.0701L225.488 10.0765Z" fill="#231815"/>
<path d="M255.04 15.5302C255.478 15.7913 255.652 16.1638 255.652 16.5395C255.652 16.8006 255.565 17.0871 255.417 17.3195C255.185 17.6952 254.776 17.9244 254.338 17.9244C254.074 17.9244 253.784 17.8384 253.52 17.6633C251.827 16.5108 249.173 15.0654 246.984 14.1453C246.575 13.9734 246.343 13.655 246.343 13.2507C246.343 13.0215 246.401 12.7891 246.546 12.5598C246.778 12.0982 247.129 11.8976 247.538 11.8976C247.74 11.8976 247.918 11.9263 248.149 12.0122C250.31 12.8495 253.021 14.2918 255.034 15.5302H255.04ZM269.481 11.2895C269.481 11.4328 269.452 11.5792 269.423 11.7512C268.052 16.6254 265.221 20.7516 261.457 23.5214C258.044 26.0302 252.879 27.6475 248.243 27.9627H248.098C247.37 27.9627 246.842 27.5584 246.755 26.7816V26.581C246.755 25.9474 247.135 25.5144 247.921 25.4571C252.181 25.1674 256.995 23.7252 260.057 21.417C263.354 18.9368 265.804 15.4729 266.999 11.0603C267.144 10.4554 267.524 10.0797 268.106 10.0797C268.251 10.0797 268.399 10.1083 268.573 10.137C269.127 10.3089 269.478 10.7133 269.478 11.2895H269.481ZM257.693 9.35699C257.693 9.5894 257.635 9.81863 257.519 10.0192C257.284 10.4522 256.85 10.6814 256.383 10.6814C256.151 10.6814 255.916 10.6241 255.713 10.4808C253.758 9.23919 251.337 7.94341 249.325 7.13474C248.887 6.96282 248.655 6.61579 248.655 6.21146C248.655 5.98223 248.713 5.77847 248.858 5.54924C249.122 5.11626 249.499 4.88703 249.936 4.88703C250.139 4.88703 250.345 4.91568 250.577 5.00164C252.561 5.78166 255.04 7.02013 257.085 8.31909C257.494 8.60881 257.696 8.98131 257.696 9.35699H257.693Z" fill="#231815"/>
<path d="M292.497 13.5372C292.497 12.7572 292.265 12.4993 291.418 12.4993H278.845C278.262 12.4993 277.94 12.009 277.94 11.4041C277.94 10.7992 278.262 10.3376 278.845 10.3376H292.294C293.956 10.3376 294.832 11.2322 294.832 12.9642V25.1101C294.832 26.8134 293.956 27.7367 292.294 27.7367H278.61C277.998 27.7367 277.705 27.2464 277.705 26.6701C277.705 26.0366 277.998 25.5749 278.61 25.5749H291.418C292.265 25.5749 292.497 25.3457 292.497 24.537V19.9206H279.601C279.019 19.9206 278.726 19.4303 278.726 18.8541C278.726 18.2492 279.019 17.7589 279.601 17.7589H292.497V13.5468V13.5372Z" fill="#231815"/>
<path d="M328 9.78997C328 9.9619 327.971 10.137 327.942 10.3089C326.747 15.2119 323.975 19.8856 319.918 22.9133C316.389 25.5399 310.989 27.24 306.468 27.4119H306.411C305.651 27.4119 305.097 26.9789 305.039 26.2594V26.1162C305.039 25.4253 305.477 24.8745 306.204 24.8458C310.522 24.6453 315.481 22.9706 318.398 20.7484C321.811 18.1218 324.349 13.9129 325.402 9.64352C325.604 8.86351 326.042 8.54832 326.567 8.54832C326.712 8.54832 326.86 8.57697 327.005 8.60563C327.617 8.77755 327.997 9.18188 327.997 9.78679L328 9.78997ZM313.939 11.9231C314.171 12.2128 314.29 12.528 314.29 12.8464C314.29 13.1934 314.145 13.5372 313.881 13.8269C313.646 14.088 313.327 14.2313 312.976 14.2313C312.625 14.2313 312.248 14.0594 311.897 13.6837C310.294 11.8658 307.901 9.81863 305.799 8.40505C305.477 8.17264 305.332 7.8288 305.332 7.48177C305.332 7.19205 305.448 6.87686 305.654 6.64445C305.918 6.32607 306.237 6.21146 306.588 6.21146C306.91 6.21146 307.199 6.32607 307.463 6.50118C309.592 7.8288 312.248 9.87594 313.939 11.9231Z" fill="#231815"/>
</g>
<defs>
<clipPath id="clip0_1_81">
<rect width="328" height="31" fill="white"/>
</clipPath>
</defs>
</svg>
